# xmcd
#
# Track frame offsets:
#  150
#  20711
#  40749
#  60337
#  92011
#  110885
#  131058
#  162320
#  178683
#
# Disc length: 2610 seconds
#
# Revision: 0
# Processed by: cddbd v1.5.1PL2 Copyright (c) Steve Scherf et al.
# Submitted via: Collectorz.com_Music_Collector 6.9
#
DISCID=770a3009
DTITLE=Albert Collins - Cold Snap (MFSL)
DYEAR=1985
DGENRE=Blues
TTITLE0=Cash Talkin' (The Workingman's Blues)
TTITLE1=Bending Like A Willow Tree
TTITLE2=A Good Fool Is Hard To Find
TTITLE3=Lights Are On But Nobody's Home
TTITLE4=I Ain't Drunk
TTITLE5=Hooked On You
TTITLE6=Too Many Dirty Dishes
TTITLE7=Snatchin' It Back
TTITLE8=Fake I.D.
EXTD=
EXTT0=
EXTT1=
EXTT2=
EXTT3=
EXTT4=
EXTT5=
EXTT6=
EXTT7=
EXTT8=
PLAYORDER=
